<?xml version="1.0" encoding="utf-8"?>
<!DOCTYPE svg PUBLIC "-//W3C//DTD SVG 1.1//EN" "http://www.w3.org/Graphics/SVG/1.1/DTD/svg11.dtd">
<svg version="1.1" id="Layer_1" xmlns="http://www.w3.org/2000/svg" xmlns:xlink="http://www.w3.org/1999/xlink" x="0px" y="0px"
	 width="55px" height="55px" viewBox="0 0 55 55" style="enable-background:new 0 0 55 55;" xml:space="preserve">
<g>
	<path d="M47.039,35.135c0,0.446-0.158,0.828-0.475,1.145c-0.316,0.315-0.697,0.474-1.144,0.474c-0.456,0-0.835-0.16-1.139-0.48
		l-4.337-4.324c-1.508,1.046-3.189,1.568-5.045,1.568c-1.205,0-2.357-0.234-3.457-0.702c-1.101-0.468-2.049-1.1-2.846-1.896
		c-0.796-0.796-1.428-1.744-1.896-2.845S26,25.82,26,24.615s0.234-2.358,0.702-3.458s1.1-2.048,1.896-2.845
		c0.797-0.797,1.745-1.429,2.846-1.896c1.1-0.468,2.252-0.702,3.457-0.702c1.206,0,2.359,0.234,3.459,0.702s2.048,1.1,2.845,1.896
		c0.796,0.797,1.429,1.745,1.896,2.845s0.702,2.253,0.702,3.458c0,1.854-0.523,3.536-1.568,5.045l4.337,4.337
		C46.883,34.309,47.039,34.688,47.039,35.135z M38.902,28.617c1.108-1.108,1.663-2.442,1.663-4.002s-0.555-2.894-1.663-4.002
		c-1.107-1.107-2.442-1.662-4.002-1.662c-1.559,0-2.893,0.555-4.001,1.662c-1.108,1.108-1.663,2.442-1.663,4.002
		s0.555,2.894,1.663,4.002s2.442,1.662,4.001,1.662C36.46,30.279,37.795,29.726,38.902,28.617z"/>
</g>
<g>
	<path d="M17.534,12.429h7.316l-2.261,1.322h-2.26c0.792,0.502,1.406,1.205,1.842,2.109s0.652,1.848,0.652,2.829
		c0,0.826-0.128,1.561-0.385,2.202s-0.569,1.157-0.938,1.548s-0.736,0.751-1.104,1.08s-0.682,0.67-0.938,1.021
		c-0.257,0.352-0.386,0.728-0.386,1.13c0,0.29,0.093,0.575,0.276,0.854c0.185,0.279,0.424,0.547,0.72,0.804s0.622,0.524,0.979,0.804
		s0.715,0.589,1.071,0.929c0.357,0.341,0.684,0.709,0.979,1.105s0.536,0.87,0.72,1.423c0.185,0.553,0.276,1.146,0.276,1.783
		c0,1.785-0.781,3.358-2.344,4.721c-1.696,1.462-4.04,2.193-7.031,2.193c-0.658,0-1.325-0.057-2-0.168
		c-0.676-0.111-1.356-0.299-2.043-0.561c-0.687-0.263-1.292-0.586-1.816-0.971c-0.524-0.386-0.954-0.882-1.289-1.49
		s-0.502-1.286-0.502-2.034c0-0.681,0.206-1.434,0.619-2.26c0.357-0.715,0.893-1.331,1.607-1.851
		c0.714-0.519,1.523-0.915,2.428-1.188c0.903-0.273,1.769-0.474,2.595-0.603c0.825-0.128,1.663-0.203,2.511-0.226
		c-0.714-0.927-1.071-1.758-1.071-2.495c0-0.134,0.011-0.265,0.033-0.393c0.022-0.129,0.051-0.237,0.084-0.327
		c0.033-0.089,0.078-0.209,0.134-0.359c0.056-0.151,0.095-0.271,0.117-0.36c-0.446,0.056-0.837,0.084-1.172,0.084
		c-1.663,0-3.089-0.547-4.277-1.641s-1.782-2.467-1.782-4.118c0-1.562,0.529-2.961,1.59-4.194c1.061-1.232,2.366-2.022,3.918-2.368
		C15.453,12.54,16.496,12.429,17.534,12.429z M21.736,34.812c0-0.234-0.025-0.461-0.075-0.678c-0.05-0.218-0.104-0.419-0.159-0.604
		c-0.056-0.184-0.153-0.376-0.293-0.577s-0.257-0.371-0.352-0.511s-0.242-0.304-0.443-0.494c-0.201-0.189-0.354-0.331-0.461-0.427
		c-0.105-0.095-0.284-0.236-0.535-0.427c-0.251-0.189-0.425-0.318-0.52-0.385c-0.095-0.067-0.278-0.195-0.552-0.385
		c-0.273-0.19-0.444-0.308-0.511-0.352c-0.19-0.022-0.469-0.034-0.837-0.034c-0.603,0-1.194,0.039-1.774,0.117
		c-0.581,0.078-1.184,0.218-1.809,0.419s-1.172,0.458-1.641,0.77c-0.469,0.313-0.854,0.731-1.155,1.256
		c-0.301,0.524-0.452,1.122-0.452,1.791c0,0.76,0.198,1.438,0.595,2.034c0.396,0.598,0.915,1.066,1.557,1.406
		c0.642,0.341,1.314,0.595,2.018,0.762c0.703,0.168,1.412,0.251,2.126,0.251c0.658,0,1.286-0.069,1.884-0.209
		c0.597-0.14,1.157-0.357,1.683-0.652c0.524-0.296,0.939-0.706,1.247-1.23C21.583,36.128,21.736,35.515,21.736,34.812z
		 M19.728,20.381c0-0.67-0.092-1.382-0.276-2.135c-0.184-0.753-0.446-1.481-0.787-2.185c-0.34-0.703-0.809-1.283-1.406-1.741
		c-0.597-0.457-1.264-0.687-2-0.687c-1.038,0-1.842,0.385-2.411,1.155s-0.854,1.69-0.854,2.763c0,0.524,0.064,1.077,0.192,1.657
		s0.326,1.16,0.595,1.741c0.268,0.58,0.58,1.102,0.938,1.564c0.356,0.464,0.792,0.841,1.306,1.131
		c0.513,0.29,1.055,0.435,1.624,0.435c1.082,0,1.866-0.337,2.352-1.013C19.484,22.393,19.728,21.497,19.728,20.381z"/>
</g>
</svg>
