<?xml version="1.0" encoding="utf-8"?>
<!DOCTYPE svg PUBLIC "-//W3C//DTD SVG 1.1//EN" "http://www.w3.org/Graphics/SVG/1.1/DTD/svg11.dtd">
<svg version="1.1" id="Layer_1" xmlns="http://www.w3.org/2000/svg" xmlns:xlink="http://www.w3.org/1999/xlink" x="0px" y="0px"
	 width="100px" height="100px" viewBox="0 0 100 100" style="enable-background:new 0 0 100 100;" xml:space="preserve">
<path style="fill:#F59731;" d="M100,94c0,3.313-2.687,6-6,6H6c-3.313,0-6-2.687-6-6V6c0-3.313,2.687-6,6-6h88c3.313,0,6,2.687,6,6
	V94z"/>
<g>
	<path style="fill:#FFFFFF;" d="M92.039,64.593c0,0.926-0.328,1.719-0.985,2.375c-0.657,0.655-1.447,0.983-2.374,0.983
		c-0.946,0-1.733-0.333-2.363-0.998l-9.003-8.977c-3.13,2.171-6.621,3.256-10.473,3.256c-2.502,0-4.894-0.486-7.177-1.458
		c-2.284-0.971-4.253-2.283-5.907-3.937c-1.651-1.652-2.964-3.621-3.935-5.905s-1.457-4.677-1.457-7.178s0.486-4.896,1.457-7.178
		s2.283-4.251,3.935-5.905c1.654-1.654,3.623-2.966,5.907-3.937c2.283-0.971,4.675-1.458,7.177-1.458
		c2.504,0,4.897,0.486,7.181,1.458c2.282,0.971,4.251,2.283,5.905,3.937c1.651,1.654,2.966,3.623,3.937,5.905
		s1.457,4.677,1.457,7.178c0,3.85-1.086,7.34-3.255,10.473l9.003,9.003C91.715,62.877,92.039,63.664,92.039,64.593z M75.148,51.063
		c2.301-2.301,3.452-5.07,3.452-8.308s-1.151-6.006-3.452-8.308c-2.299-2.299-5.07-3.45-8.308-3.45c-3.235,0-6.005,1.151-8.306,3.45
		c-2.301,2.301-3.452,5.07-3.452,8.308s1.151,6.007,3.452,8.308s5.07,3.45,8.306,3.45C70.078,54.513,72.85,53.364,75.148,51.063z"/>
</g>
<g>
	<path style="fill:#FFFFFF;" d="M30.791,17.458h15.188l-4.692,2.745h-4.691c1.644,1.042,2.919,2.501,3.823,4.379
		c0.904,1.877,1.354,3.835,1.354,5.873c0,1.715-0.266,3.24-0.799,4.571c-0.533,1.332-1.182,2.402-1.946,3.213
		c-0.764,0.811-1.528,1.559-2.293,2.242c-0.764,0.683-1.415,1.391-1.946,2.121c-0.532,0.729-0.8,1.51-0.8,2.345
		c0,0.602,0.192,1.194,0.573,1.772c0.383,0.58,0.88,1.135,1.494,1.668c0.614,0.533,1.291,1.088,2.033,1.668
		c0.742,0.58,1.483,1.222,2.224,1.928c0.742,0.708,1.419,1.472,2.033,2.295c0.614,0.823,1.113,1.806,1.494,2.954
		c0.383,1.147,0.574,2.38,0.574,3.702c0,3.706-1.622,6.972-4.865,9.799c-3.521,3.035-8.387,4.553-14.597,4.553
		c-1.366,0-2.751-0.118-4.151-0.349c-1.402-0.231-2.816-0.621-4.241-1.164c-1.425-0.545-2.682-1.216-3.771-2.015
		c-1.089-0.801-1.98-1.831-2.676-3.094c-0.695-1.263-1.042-2.669-1.042-4.223c0-1.413,0.428-2.976,1.285-4.691
		c0.742-1.484,1.853-2.763,3.337-3.841c1.481-1.077,3.162-1.899,5.039-2.467c1.876-0.568,3.672-0.983,5.387-1.251
		c1.713-0.265,3.452-0.421,5.212-0.468c-1.481-1.924-2.224-3.649-2.224-5.179c0-0.278,0.022-0.549,0.068-0.815
		c0.047-0.268,0.105-0.493,0.175-0.679c0.069-0.185,0.162-0.434,0.278-0.746c0.115-0.314,0.196-0.562,0.243-0.748
		c-0.927,0.116-1.737,0.174-2.433,0.174c-3.453,0-6.412-1.135-8.88-3.406c-2.467-2.271-3.699-5.121-3.699-8.549
		c0-3.244,1.099-6.146,3.3-8.707c2.202-2.559,4.912-4.199,8.134-4.916C26.471,17.689,28.636,17.458,30.791,17.458z M39.514,63.921
		c0-0.486-0.053-0.957-0.156-1.407c-0.104-0.452-0.215-0.87-0.33-1.253c-0.115-0.381-0.318-0.78-0.608-1.198
		c-0.29-0.418-0.533-0.771-0.729-1.061c-0.196-0.29-0.503-0.63-0.92-1.026c-0.418-0.393-0.736-0.687-0.957-0.886
		c-0.219-0.197-0.59-0.491-1.111-0.886c-0.521-0.394-0.882-0.661-1.078-0.799c-0.197-0.14-0.578-0.405-1.146-0.799
		c-0.567-0.395-0.923-0.639-1.061-0.729c-0.396-0.047-0.973-0.071-1.737-0.071c-1.251,0-2.479,0.081-3.684,0.243
		c-1.206,0.163-2.457,0.452-3.754,0.87c-1.298,0.417-2.433,0.951-3.406,1.597c-0.973,0.651-1.771,1.519-2.397,2.607
		c-0.625,1.089-0.938,2.33-0.938,3.718c0,1.577,0.411,2.984,1.234,4.223c0.822,1.241,1.899,2.213,3.231,2.919
		c1.331,0.708,2.729,1.235,4.188,1.582c1.46,0.349,2.932,0.521,4.414,0.521c1.366,0,2.669-0.144,3.91-0.434
		c1.238-0.29,2.402-0.742,3.493-1.354c1.088-0.614,1.95-1.466,2.588-2.554C39.195,66.654,39.514,65.381,39.514,63.921z
		 M35.344,33.965c0-1.391-0.19-2.869-0.573-4.431c-0.382-1.563-0.927-3.076-1.634-4.535c-0.706-1.459-1.679-2.664-2.92-3.614
		c-1.238-0.949-2.623-1.425-4.151-1.425c-2.155,0-3.823,0.799-5.005,2.398c-1.183,1.6-1.772,3.509-1.772,5.735
		c0,1.088,0.134,2.236,0.399,3.44s0.678,2.408,1.234,3.615c0.556,1.204,1.205,2.287,1.946,3.248c0.74,0.963,1.645,1.745,2.711,2.347
		c1.064,0.603,2.189,0.902,3.371,0.902c2.246,0,3.874-0.699,4.882-2.102C34.839,38.142,35.344,36.283,35.344,33.965z"/>
</g>
</svg>
